<?xml version="1.0" encoding="utf-8"?>
<!-- Generator: Adobe Illustrator 19.2.1, SVG Export Plug-In . SVG Version: 6.00 Build 0)  -->
<svg version="1.1" id="Layer_1" xmlns="http://www.w3.org/2000/svg" xmlns:xlink="http://www.w3.org/1999/xlink" x="0px" y="0px" viewBox="0 0 799.8 326.6" style="enable-background:new 0 0 799.8 326.6;" xml:space="preserve">
  <style type="text/css">
	.st0{fill:none;}
	.st1{fill:#FFFFFF;}
	.st2{fill:#0B2659;}
</style>
  <title>FortescueLogo</title>
  <path class="st0" d="M568.8,192.8c-3.9,0-5.6,3.6-5.6,7c0,4,2.3,7,5.5,7s5.5-3,5.5-7C574.2,196.7,572.7,192.8,568.8,192.8z" />
  <path class="st0" d="M703.7,192.8c-3.9,0-5.6,3.6-5.6,7c0,4,2.3,7,5.5,7s5.5-3,5.5-7C709.2,196.7,707.6,192.8,703.7,192.8z" />
  <path class="st0" d="M497.1,192.7c-3.3,0-4.8,3.1-5.1,5.4h9.6C501.7,196,500.8,192.7,497.1,192.7z" />
  <path class="st0" d="M617.7,192.7c-3.3,0-4.8,3.1-5.1,5.4h9.6C622.3,196,621.4,192.7,617.7,192.7z" />
  <path class="st0" d="M588.3,129c-7.5,0-10.7,6.9-11.2,11.8h21.3C598.4,136.3,596.4,129,588.3,129z" />
  <path class="st0" d="M69.3,185.2V185l-0.7,0.2L69.3,185.2z" />
  <path class="st0" d="M445.7,192.7c-3.3,0-4.8,3.1-5,5.4h9.6C450.3,196,449.4,192.7,445.7,192.7z" />
  <path class="st0" d="M465,129.5c-8.6,0-12.1,8.4-12.1,16.5c0,9.3,4.7,16.4,12,16.4c7,0,11.8-6.8,11.8-16.6
	C476.7,138.2,473.4,129.5,465,129.5z" />
  <path class="st0" d="M755.6,185.9c-5.4,0-8.1,5-8.1,10.5s2.9,10.2,8.1,10.2s8.1-4.8,8.1-10.5C763.7,191.2,761,185.9,755.6,185.9z" />
  <path class="st0" d="M778.3,129c-7.5,0-10.7,6.9-11.2,11.8h21.2C788.4,136.3,786.4,129,778.3,129z" />
  <path class="st0" d="M790.4,192.7c-3.3,0-4.8,3.1-5,5.4h9.7C795,196,794.1,192.7,790.4,192.7z" />
  <path class="st1" d="M60.9,186c2.8-0.1,5.8-0.4,7.8-0.7l0.7-0.2v-76.2h42.8v11.8H81.3v19.9h26.6v11.8H81.3v29.5
	c30.5-12.1,45.3-46.6,33.2-77.1c-4.7-11.9-13.2-22-24.2-28.7c0,0.3,0,0.7,0.1,1.1c0.4,6.8-0.8,16-7.9,22.2c-2.3,1.9-4.8,3.5-7.7,4.5
	l0,0c-3.2,1.2-6.6,2.4-9.9,3.6c-6.6,2.3-13,5.2-19.1,8.5c-10,5.7-18.1,13.5-21,25.8c-1.3,5.8-1.5,11.8-0.6,17.7
	c0.7,5.1,1.7,10.2,3.1,15.1c0.2,0.6,0.4,1.3,0.5,2c0.1,0.3,0.1,0.5,0.2,0.8c9.4,5.8,20.2,8.8,31.2,8.8H60.9z" />
  <path class="st2" d="M338.9,115.1c0,0-6.8,2.6-9.9,0.2s-7.2-22.5-7.2-22.5l-10-4.9l-4-3.3l-22.2-51.4l-6.2,2.1l-2-14.7L268.7,0
	l-10.9,24.7c0,0-6.2,43-9.9,43.3s-38.2-22.7-39.5-26.7s13-25.3,13-25.3l-23.9-2.1l-5.6-2.6l-12.9-7l5.9,9.6l-14.3-0.2l-10.1,13
	c0,0,2.3,12.9-1.6,15.3s-9.8-2.9-9.8-2.9l-2.4-0.4l-6.7-7.5l-11.9-0.5l-5,11.9l-5.2,0.2l3.7,4.4L108,52.5l1.3,17.1l-7.1-14.8
	l-6.5,8.3l1.7,8.5l-6.8,4.2L90.3,76c28,17.1,36.8,53.6,19.7,81.6c-6.7,11-16.8,19.5-28.8,24.2v-29.5h26.6v-11.8H81.3v-19.9h30.9
	v-11.8H69.3v76.3l-0.7,0.1c-2,0.3-5,0.6-7.8,0.7h-1.5c-11,0-21.8-3.1-31.2-8.9c0.3,1,0.6,1.9,0.9,2.9c5.3,16.2,10.9,33.9,11.7,39
	v0.1c0.1,0.4,0.1,0.9,0.1,1.3c-1.1,2.9-6.4,4.1-6.4,4.1l12.9,12.9c0,0,38.9-16.9,41.9-16.4s5.7,6.2,5.7,6.2s68.6-26.4,77.4-24.4
	s33.1,30.5,33.1,30.5l6.4,0.5l16.3-20.9l-6.6,23.5l6.4,2.1l3-9.6l4,6.2l-3.8,8.5l6.8-1.5l20.8,28.4l13.9,2.8l14-3.5l14.7,8h3.8
	l-0.8-2.7l10.2-9.3l17.4-4.2l16.9-46.1l3.1-2.9l9.4-70.1l-21.8-17.6L338.9,115.1z M213.1,185.2l-6.7-48.6l-24,48.6h-3.7l-24.3-49
	l-6.7,49h-10.1l10.9-75.9h3.4l28.7,57.9l28.4-57.9h3.4l10.9,75.9H213.1z M323.3,148.8c0,5.3-0.9,10.6-2.6,15.7
	c-3.4,9.3-10.7,16.6-20,20c-5,1.8-10.2,2.7-15.5,2.6l0,0c-6.4,0.1-12.8-1.1-18.7-3.6c-9.9-4.4-17.6-12.5-21.5-22.6
	c-1.6-4.4-2.4-9-2.4-13.6l0,0l0,0c0-7,1.8-13.9,5.4-20c3.5-6.1,8.7-11.1,14.8-14.5c6.5-3.5,13.8-5.3,21.2-5.2l0,0
	c6.2,0,12.3,1.1,18,3.5c6.1,2.6,11.7,6.3,16.4,11l1.1,1.1l-7.9,7.4l-1-1c-3.7-3.7-8.1-6.7-12.9-8.8c-4.3-1.9-8.9-2.9-13.6-3
	c-5.5,0-10.8,1.4-15.6,4c-4.7,2.5-8.7,6.3-11.4,10.9c-2.6,4.4-4,9.4-4.1,14.5c0,5.2,1.5,10.4,4.2,14.9c2.8,4.7,6.8,8.5,11.6,11.1
	c5,2.7,10.6,4.1,16.3,4.1c7.2,0,13.2-2,18.1-6c4.3-3.4,7.3-8.3,8.4-13.7v-0.1h-23v-10h34.4L323.3,148.8L323.3,148.8z" />
  <polygon class="st2" points="278.6,297.7 285.9,314.1 288.5,323.3 302.7,326.6 304.4,321.7 309.5,325.1 310.2,322.5 313.5,316.7 
	314.8,301 298.7,302.5 " />
  <path class="st2" d="M27.4,174.4c-1.4-5-2.4-10-3.1-15.1c-0.9-5.9-0.7-11.9,0.6-17.7c2.8-12.3,11-20.1,21-25.8
	c6.1-3.3,12.5-6.2,19.1-8.5c3.3-1.2,6.7-2.4,9.9-3.6l0,0c2.8-1,5.4-2.5,7.7-4.5c7.1-6.2,8.3-15.3,7.9-22.2c0-0.4,0-0.7-0.1-1.1
	C62.4,58.8,25.8,67.5,8.7,95.4S0.2,160,28.2,177.1c-0.1-0.3-0.1-0.5-0.2-0.8C27.8,175.7,27.6,175.1,27.4,174.4z" />
  <polygon class="st1" points="208.9,109.3 180.5,167.3 151.8,109.3 148.4,109.3 137.6,185.2 139.3,185.2 147.6,185.2 154.3,136.2 
	178.6,185.2 182.4,185.2 206.4,136.6 213.1,185.2 223.3,185.2 212.4,109.3 " />
  <path class="st1" d="M288.9,157.3h23v0.1c-1.1,5.4-4,10.2-8.4,13.7c-4.9,4-10.9,6-18.1,6c-5.7,0.1-11.3-1.3-16.3-4.1
	c-4.8-2.5-8.9-6.4-11.7-11.1c-2.7-4.5-4.2-9.6-4.2-14.9c0-5.1,1.4-10.1,4.1-14.5c2.7-4.6,6.7-8.4,11.4-10.9c4.8-2.6,10.2-4,15.6-4
	c4.7,0.1,9.3,1.1,13.6,3c4.8,2.1,9.2,5.1,12.9,8.8l1,1l7.9-7.4l-1.1-1.1c-4.7-4.7-10.3-8.4-16.4-11c-5.7-2.3-11.8-3.5-18-3.5l0,0
	c-7.4-0.1-14.7,1.7-21.2,5.2c-6.2,3.4-11.3,8.4-14.9,14.5c-3.6,6.1-5.4,13-5.4,20l0,0l0,0c-0.1,9.4,3.3,18.4,9.4,25.5
	c3.9,4.6,8.9,8.3,14.5,10.7c5.9,2.5,12.3,3.7,18.7,3.6l0,0c5.3,0.1,10.5-0.8,15.5-2.6c9.3-3.4,16.6-10.7,20-20
	c1.8-5,2.7-10.3,2.6-15.7v-1.5h-34.4V157.3L288.9,157.3z" />
  <polygon class="st2" points="396.6,186.4 404.3,186.4 404.3,208.9 407.6,208.9 407.6,186.4 415.3,186.4 415.3,183.7 396.6,183.7 " />
  <path class="st2" d="M427.1,190.4c-1.2,0-2.3,0.3-3.4,0.9c-1,0.5-1.8,1.3-2.4,2.3h-0.1v-11.3H418v26.6h3.3V198c0-0.5,0-1.1,0.2-1.6
	c0.6-2,2.4-3.3,4.5-3.3c3.1,0,4.2,2.5,4.2,5.4v10.4h3.3v-10.8C433.4,191.9,429.5,190.4,427.1,190.4z" />
  <path class="st2" d="M446,190.4c-5.3,0-8.5,4.3-8.5,9.8s3.3,9.2,8.9,9.2c2.1,0,4.1-0.4,6-1.2l-0.6-2.4c-1.6,0.7-3.3,1-5,0.9
	c-3.3,0-6.1-1.8-6.2-6.3h12.7c0.1-0.5,0.1-1,0.1-1.5C453.5,195.6,451.9,190.4,446,190.4z M440.7,198.1c0.3-2.3,1.7-5.4,5-5.4
	c3.7,0,4.6,3.3,4.6,5.4H440.7z" />
  <path class="st2" d="M481.5,194.2c0,3.9,0.1,7,0.4,10.4h-0.1c-1.3-2.8-2.9-5.6-4.5-8.2l-8.1-12.8h-3.6v25.3h3.1v-10.8
	c0-4.2-0.1-7.2-0.3-10.4h0.1c1.4,2.9,3,5.7,4.7,8.4l8,12.8h3.3v-25.3h-3.1L481.5,194.2L481.5,194.2z" />
  <path class="st2" d="M497.3,190.4c-5.3,0-8.5,4.3-8.5,9.8s3.3,9.2,8.9,9.2c2.1,0,4.1-0.4,6-1.2l-0.6-2.4c-1.6,0.7-3.3,1-5,0.9
	c-3.3,0-6.1-1.8-6.2-6.3h12.7c0.1-0.5,0.1-1,0.1-1.5C504.8,195.6,503.2,190.4,497.3,190.4z M492,198.1c0.3-2.3,1.7-5.4,5.1-5.4
	c3.7,0,4.6,3.3,4.6,5.4H492z" />
  <path class="st2" d="M527.3,199.9c-0.6,1.9-1,3.9-1.4,5.9h-0.1c-0.4-1.8-0.9-3.7-1.6-5.9l-2.8-9.1h-2.8l-3,9.2
	c-0.6,2-1.2,3.9-1.6,5.8h0c-0.3-1.9-0.8-3.7-1.3-5.8l-2.4-9.2h-3.4l5.5,18.1h3l2.9-8.6c0.7-2,1.2-4,1.7-6h0.1c0.4,2,1,4,1.6,6
	l2.8,8.6h3l5.8-18.1H530L527.3,199.9z" />
  <polygon class="st2" points="544.5,208.9 547.8,208.9 547.8,197.5 557.3,197.5 557.3,194.8 547.8,194.8 547.8,186.4 558.1,186.4 
	558.1,183.7 544.5,183.7 " />
  <path class="st2" d="M568.8,190.4c-5,0-9,3.6-9,9.6c0,5.7,3.8,9.3,8.7,9.3c4.4,0,9-2.9,9-9.6C577.6,194.1,574.1,190.4,568.8,190.4z
	 M568.7,206.8c-3.2,0-5.5-3-5.5-7c0-3.4,1.7-7,5.6-7s5.4,3.9,5.4,7C574.2,203.9,571.8,206.8,568.7,206.8L568.7,206.8z" />
  <path class="st2" d="M584.7,194.3h-0.2l-0.1-3.6h-2.9c0.1,1.7,0.2,3.5,0.2,5.7v12.5h3.3v-9.7c0-0.5,0.1-1,0.2-1.5
	c0.5-2.5,2.1-4.2,4.4-4.2c0.4,0,0.8,0,1.1,0.1v-3.1c-0.3-0.1-0.6-0.1-0.9-0.1C587.4,190.5,585.4,192.1,584.7,194.3z" />
  <path class="st2" d="M602.4,193c1.3-0.1,2.6,0.2,3.8,0.9l0.8-2.6c-1.4-0.6-3-0.9-4.6-0.9c-5.9,0-9.7,4-9.7,9.6s3.6,9.3,9,9.3
	c1.8,0,3.6-0.3,5.2-1.1l-0.6-2.5c-1.3,0.6-2.6,0.9-4,0.9c-3.6,0-6.3-2.6-6.3-6.8C596,196.1,598.3,193,602.4,193z" />
  <path class="st2" d="M617.9,190.4c-5.3,0-8.5,4.3-8.5,9.8s3.3,9.2,8.9,9.2c2.1,0,4.1-0.4,6-1.2l-0.6-2.4c-1.6,0.7-3.3,1-5,0.9
	c-3.3,0-6.1-1.8-6.2-6.3h12.7c0.1-0.5,0.1-1,0.1-1.5C625.4,195.6,623.9,190.4,617.9,190.4z M612.6,198.1c0.3-2.3,1.7-5.4,5.1-5.4
	c3.7,0,4.6,3.3,4.6,5.4H612.6L612.6,198.1z" />
  <rect x="637.5" y="190.8" class="st2" width="3.3" height="18.1" />
  <path class="st2" d="M639.1,183.6c-1.1,0-2,0.8-2.1,1.9c0,0,0,0.1,0,0.1c0,1.1,1,2,2.1,1.9c1.1,0,2-1,1.9-2.1
	C641,184.5,640.2,183.7,639.1,183.6z" />
  <path class="st2" d="M655.2,190.4c-2.5-0.1-4.8,1.2-6,3.4h-0.1l-0.2-3h-2.9c0.1,1.5,0.2,3,0.2,4.9v13.2h3.3V198c0-0.5,0.1-1,0.2-1.5
	c0.6-2,2.4-3.3,4.4-3.4c3.1,0,4.2,2.4,4.2,5.4v10.4h3.3v-10.8C661.7,191.9,657.8,190.4,655.2,190.4z" />
  <rect x="675" y="183.7" class="st2" width="3.3" height="25.2" />
  <path class="st2" d="M686.9,194.3h-0.1l-0.1-3.6h-2.9c0.1,1.7,0.2,3.5,0.2,5.7v12.5h3.3v-9.7c0-0.5,0.1-1,0.1-1.5
	c0.5-2.5,2.1-4.2,4.4-4.2c0.4,0,0.8,0,1.1,0.1v-3.1c-0.3-0.1-0.6-0.1-0.9-0.1C689.5,190.5,687.5,192.1,686.9,194.3z" />
  <path class="st2" d="M703.8,190.4c-5,0-9,3.6-9,9.6c0,5.7,3.8,9.3,8.7,9.3c4.4,0,9-2.9,9-9.6C712.5,194.1,709,190.4,703.8,190.4z
	 M703.7,206.8c-3.2,0-5.5-3-5.5-7c0-3.4,1.7-7,5.6-7s5.4,3.9,5.4,7C709.2,203.9,706.8,206.8,703.7,206.8L703.7,206.8z" />
  <path class="st2" d="M725.7,190.4c-2.5-0.1-4.8,1.2-6,3.4h-0.1l-0.2-3h-2.9c0.1,1.5,0.2,3,0.2,4.9v13.2h3.3V198c0-0.5,0.1-1,0.2-1.5
	c0.6-2,2.4-3.3,4.4-3.4c3.1,0,4.2,2.4,4.2,5.4v10.4h3.3v-10.8C732.1,191.9,728.2,190.4,725.7,190.4z" />
  <path class="st2" d="M755.8,183.3c-6.7,0-11.7,5.2-11.7,13.3c0,7.6,4.7,12.8,11.3,12.8c6.4,0,11.7-4.6,11.7-13.3
	C767.1,188.5,762.6,183.3,755.8,183.3z M755.6,206.6c-5.1,0-8.1-4.8-8.1-10.2s2.7-10.5,8.1-10.5s8,5.3,8,10.3
	C763.7,201.9,760.7,206.6,755.6,206.6z" />
  <path class="st2" d="M774.2,194.3h-0.2l-0.1-3.6h-2.9c0.1,1.7,0.2,3.5,0.2,5.7v12.5h3.3v-9.7c0-0.5,0.1-1,0.2-1.5
	c0.5-2.5,2.1-4.2,4.4-4.2c0.4,0,0.8,0,1.1,0.1v-3.1c-0.3-0.1-0.6-0.1-0.9-0.1C776.9,190.5,774.8,192.1,774.2,194.3z" />
  <path class="st2" d="M790.7,190.4c-5.3,0-8.5,4.3-8.5,9.8s3.3,9.2,8.9,9.2c2.1,0,4.1-0.4,6-1.2l-0.6-2.4c-1.6,0.7-3.3,1-5,0.9
	c-3.3,0-6.1-1.8-6.2-6.3H798c0.1-0.5,0.1-1,0.1-1.5C798.1,195.6,796.6,190.4,790.7,190.4z M785.3,198.1c0.3-2.3,1.7-5.4,5-5.4
	c3.7,0,4.6,3.3,4.6,5.4H785.3L785.3,198.1z" />
  <polygon class="st2" points="397,170.1 409.2,170.1 409.2,141.6 433.9,141.6 433.9,131.6 409.2,131.6 409.2,113.2 435.8,113.2 
	435.8,103.1 397,103.1 " />
  <path class="st2" d="M489.4,145.4c0-14.7-9.6-24.8-24-24.8c-14.6,0-25,9.7-25,25.6c0,15.6,10.6,24.9,24.3,24.9
	C476.8,171.2,489.4,163.2,489.4,145.4z M464.9,162.3c-7.4,0-12-7.1-12-16.4c0-8,3.5-16.5,12.1-16.5c8.4,0,11.7,8.7,11.7,16.3
	C476.7,155.6,471.9,162.3,464.9,162.3z" />
  <path class="st2" d="M498.4,170.1h12.2V145c0-1.2,0.1-2.5,0.3-3.7c1.1-5.6,5.2-9.2,10.9-9.2c1.2,0,2.5,0.1,3.7,0.3v-11.5
	c-0.9-0.2-1.9-0.3-2.9-0.3c-5.3,0-10.9,3.5-13.3,10.2H509l-0.5-9.1H498c0.3,4.3,0.4,9,0.4,15.6L498.4,170.1L498.4,170.1z" />
  <path class="st2" d="M560.3,169.9l-0.2-9.2c-1.6,0.4-3.2,0.6-4.8,0.5c-4.7,0-6.3-3-6.3-8.9v-21.4h11.6v-9.1h-11.6v-12.4l-12,3.4v9
	h-6.8v9.1h6.8v22.8c0,6.4,1.2,10.8,3.9,13.6c2.3,2.5,6,4,10.5,4C554.5,171.3,557.5,170.8,560.3,169.9z" />
  <path class="st2" d="M592,161.9c-7.8,0-14.6-3.8-14.9-12.5h32.4c0.3-1.7,0.4-3.4,0.4-5.2c0-10.6-5.2-23.6-20.9-23.6
	c-15.5,0-23.7,12.6-23.7,26c0,14.8,9.2,24.4,24.9,24.4c5.8,0.1,11.5-0.9,16.8-3.1l-1.8-8.3C601.1,161.2,596.6,161.9,592,161.9z
	 M588.3,129c8.2,0,10.1,7.4,10,11.8h-21.2C577.5,135.8,580.7,129,588.3,129z" />
  <path class="st2" d="M650.1,155.9c-0.1-7.2-4.1-11.6-12.9-14.7c-6.2-2.3-8.5-3.7-8.5-6.8s2.4-5.2,6.8-5.2c3.6,0,7.1,1,10.2,2.8
	l2.5-8.6c-4-2-8.4-3-12.9-2.9c-11.2,0-18.3,6.6-18.3,15.1c0,5.8,3.9,10.9,13.3,14.1c6,2.2,8,3.8,8,7.1s-2.4,5.5-7.8,5.5
	c-4.3-0.2-8.6-1.4-12.3-3.6l-2.5,8.9c4.5,2.3,9.6,3.5,14.7,3.4C643.3,171.1,650.1,164.7,650.1,155.9z" />
  <path class="st2" d="M683.4,161.4c-8.3,0-14.8-5.7-14.8-15.6c-0.1-8.8,5.5-15.7,14.8-15.7c3.2-0.1,6.4,0.5,9.2,1.9l2.2-9.2
	c-3.8-1.5-7.8-2.2-11.8-2.2c-17,0-26.9,11.2-26.9,25.7c0,15,9.8,24.7,24.9,24.7c4.7,0.1,9.3-0.8,13.7-2.5l-1.7-9
	C690,160.9,686.7,161.5,683.4,161.4z" />
  <path class="st2" d="M746.1,155.6v-33.9h-12.2v29.2c0,1.3-0.2,2.6-0.7,3.8c-1.4,3.9-5.2,6.5-9.3,6.6c-6.5,0-9-5.2-9-13.2v-26.3
	h-12.3v28.4c0,15.8,8,21.1,16.8,21.1c6.3,0.2,12.3-3,15.6-8.4h0.3l0.6,7.3h10.6C746.3,166.1,746.1,161.4,746.1,155.6z" />
  <path class="st2" d="M779,120.6c-15.5,0-23.7,12.6-23.7,26c0,14.8,9.2,24.4,24.9,24.4c5.8,0.1,11.5-0.9,16.9-3.1l-1.8-8.3
	c-4.3,1.5-8.9,2.2-13.4,2.2c-7.8,0-14.6-3.8-14.9-12.5h32.4c0.3-1.7,0.4-3.4,0.4-5.2C799.8,133.5,794.7,120.6,779,120.6z M767,140.8
	c0.5-5,3.7-11.8,11.2-11.8c8.2,0,10.1,7.4,10,11.8H767z" />
</svg>